<svg width="525" height="517" xmlns="http://www.w3.org/2000/svg" t="1717860991738" class="icon" version="1.1" p-id="4796">
 <g>
  <title>Layer 1</title>
  <path d="m435.95144,252.0233c-0.49709,-1.49127 -0.99418,-2.98253 -1.49127,-5.46796c-0.49708,-1.98836 -0.99417,0 -1.49126,-1.49127c0,-0.99417 -0.49708,-0.99417 -0.49708,-1.49126c-0.49709,-5.96505 -1.49127,-12.42718 -2.48544,-19.38641c-0.99418,0.99418 0,3.9767 0,6.46214c-0.49709,-0.99418 0,-2.48544 -0.99418,-4.47379c-0.49708,0.49709 0.49709,2.98253 -0.49708,3.47961c-1.98835,-4.97087 -3.47962,-11.43301 -5.96505,-18.39223c0,1.98835 0,5.46796 0.99417,9.44466c-1.98835,-10.43883 -5.46796,-20.38058 -9.44466,-27.83689c-0.49708,0.49709 0,2.48543 0.99418,4.97087c-5.96505,-14.91262 -13.91845,-27.3398 -23.36311,-37.77864c6.46214,10.93592 12.42718,22.36893 16.40388,34.29903c3.9767,11.9301 6.95923,24.35728 7.45631,36.28738c-2.48543,-12.92427 -4.47378,-24.85437 -9.44466,-36.78447c-0.49708,0.49709 0.49709,1.98835 0.99418,3.47961c-1.49126,-2.98252 -3.47961,-8.45048 -4.97088,-11.93009c-0.49708,-0.99418 0,0.49708 0.49709,0.99417c-4.47378,-8.45048 -8.45048,-15.90679 -12.92427,-23.86019c-4.97087,-7.45631 -10.43884,-14.91262 -17.39806,-21.87185c0.99418,1.98835 5.46796,7.45631 8.45049,11.43301c-0.49709,0 -0.99418,-0.99417 -0.99418,-0.49708c5.46796,7.45631 10.93592,15.90679 14.91262,24.85436c4.47379,8.94758 7.9534,18.39224 10.43884,27.8369c-2.48544,-5.46796 -3.9767,-10.43884 -4.97088,-13.42136c1.49127,5.96505 3.47962,12.42718 5.46797,18.88932c1.49126,6.95922 2.98252,13.91845 3.47961,19.88349c-1.98835,-12.92427 -4.97088,-24.35728 -9.44466,-35.2932c-3.9767,-10.93592 -9.44466,-21.37476 -16.40389,-30.81942c4.97088,8.45049 9.94175,18.39224 13.42136,28.33398c-1.98835,-2.98252 0.49709,3.47961 0.99418,5.96505c-3.47961,-8.94757 -7.9534,-18.39223 -12.92427,-26.84272c-4.97088,-8.94757 -10.93593,-17.39806 -17.89515,-24.35728c5.96505,7.9534 12.42718,17.39806 17.89515,27.83689c5.46796,10.43884 9.94174,21.37476 12.92427,32.31068c-4.47379,-13.42135 -10.93592,-27.83689 -19.8835,-41.25825c-8.94757,-13.42136 -20.38058,-26.34563 -33.80194,-36.28738c16.90097,13.91845 30.81942,31.8136 39.76699,50.70292c-4.97087,-7.9534 -10.43883,-15.9068 -16.40388,-23.36311c-5.96505,-7.45631 -12.92427,-14.91262 -20.38058,-20.87767c7.45631,7.9534 16.40388,17.39806 24.35728,28.83107c7.95339,10.93592 13.91844,23.3631 16.90097,35.2932c-4.97088,-12.92427 -11.43301,-25.84854 -19.8835,-37.28155c-8.45048,-11.9301 -18.88932,-22.36893 -30.81942,-31.31651c-11.93009,-8.94757 -25.35145,-15.90679 -38.77281,-20.38058c-13.91845,-4.47379 -28.33398,-6.95922 -42.74952,-6.46214c12.92428,0 25.84855,2.48544 38.27573,6.46214s24.35728,9.44466 35.29321,16.90097c10.93592,7.45631 20.38058,15.9068 28.83106,25.84854c8.45049,9.94175 14.91263,20.38059 20.38059,31.31651c-8.45049,-14.91262 -19.38641,-29.82524 -33.30486,-42.25243c-13.42136,-12.42718 -29.82524,-21.87184 -46.72621,-27.3398c9.44466,3.9767 21.37476,9.44466 32.80777,17.39805s21.87184,17.89515 29.82524,28.83107c-10.43884,-12.42718 -23.36311,-23.86019 -38.77282,-32.80776c-14.91262,-8.94758 -32.31068,-15.40971 -50.70291,-17.89515c-8.94757,-1.49126 -18.39223,-1.98835 -27.83689,-1.49126c-9.44466,0.49709 -18.88932,1.98835 -27.8369,4.47378c-18.39223,4.97088 -35.79029,13.42136 -50.20582,25.35146c-10.43884,8.45049 -19.38641,17.89515 -26.34563,28.83107c-7.45631,10.93592 -13.42136,22.36893 -17.39806,34.29903c-3.9767,10.93592 -5.96505,22.36893 -6.46214,33.80194c-0.49708,10.93592 0.49709,22.36893 2.48544,32.80777c4.47379,20.87767 13.42136,39.2699 25.35146,54.67961c-4.97088,-4.47379 -9.94175,-11.43301 -13.91845,-19.38641c-3.9767,-7.9534 -6.95922,-16.40388 -9.94175,-22.86602c-1.49126,-3.47961 -3.9767,-3.9767 -4.97087,-8.45048c0.99417,6.95922 3.47961,12.92427 5.96505,19.3864c2.48543,5.96505 5.96505,12.42719 8.94757,18.88932c-0.99417,0 -1.98835,-2.98252 -2.98252,-3.47961c5.46796,10.93592 11.93009,19.38641 18.88932,27.33981c7.45631,7.45631 15.40971,14.41553 24.35728,20.87767c-7.9534,-3.9767 -16.40388,-10.43884 -23.8602,-17.89515s-13.91844,-16.40388 -19.88349,-24.85437c3.47961,6.95923 7.9534,12.92428 12.92427,18.88932c4.97087,5.46796 10.43884,10.93593 15.9068,16.40389c-6.95923,-3.9767 -13.91845,-10.93592 -19.8835,-18.88932c-6.46213,-7.9534 -11.43301,-16.40389 -16.40388,-23.8602c2.98252,7.45631 6.46213,12.92427 10.43883,18.39224s7.9534,10.43883 12.92428,15.90679c1.49126,1.98835 -0.99418,0 0,1.49126c7.95339,8.94758 17.39805,16.40389 27.3398,22.86602c9.94175,6.46214 20.87767,10.93593 32.31068,14.91262c-13.91845,-2.98252 -28.83107,-9.44466 -42.25243,-19.3864c-13.42136,-9.44466 -25.35145,-21.87185 -35.2932,-34.79612c7.45631,11.9301 16.40388,22.36893 26.84272,30.81942c10.43883,8.45048 21.87184,15.40971 33.80194,21.37476c-5.46796,-1.49127 -11.9301,-4.47379 -17.89515,-7.9534c-5.96505,-3.47961 -11.93009,-7.9534 -17.89514,-12.42719c6.46213,6.46214 15.90679,11.9301 24.35728,16.90097c-4.97087,-1.49126 -10.93592,-4.97087 -16.90097,-8.94757c-5.96505,-3.9767 -11.43301,-8.94757 -16.40388,-13.42136c9.44466,9.94175 20.38058,17.89515 32.31068,24.35728c11.93009,6.46214 23.86019,10.43884 36.28737,13.42136c-1.49126,0.49709 -4.47378,0 -7.45631,-0.99417c-3.47961,-0.99418 -6.95922,-1.98835 -9.94174,-2.98253c5.96504,2.48544 12.92427,4.47379 19.3864,5.96505c6.95923,1.49126 13.91845,1.98835 20.87767,2.98253c-8.94757,0.49708 -18.88932,-0.49709 -29.32815,-3.47961c-9.94175,-2.48544 -19.8835,-6.46214 -29.32816,-11.43301c-18.88932,-9.94175 -36.28738,-22.86602 -49.70874,-39.26991c9.94175,13.42136 21.87185,24.35728 34.79612,32.80777c13.42136,8.45048 27.33981,14.91262 42.74952,19.88349c-14.41554,-2.48543 -30.32233,-9.44466 -44.73787,-19.3864c-14.41553,-9.94175 -27.83689,-22.86602 -38.27573,-36.28738c6.95923,10.93592 15.9068,20.87767 25.84855,29.32815c9.94175,8.45049 20.87767,14.91262 31.81359,19.8835c8.94757,3.9767 16.40388,5.96505 24.85437,9.44466c1.49126,0 5.96505,0.99417 9.94175,2.48544c-0.49709,-0.99418 -0.99418,-0.49709 3.47961,0.49708c3.9767,0.99418 8.94757,1.49127 14.41553,1.98835c5.46796,0.49709 11.43301,0.49709 16.40389,0.49709c-5.96505,0.99418 -12.92428,1.49126 -20.38059,0.49709c-7.45631,-0.49709 -14.91262,-1.98835 -21.37475,-2.98253c-1.98835,-0.99417 -3.9767,-0.99417 -5.96505,-1.49126c-1.49126,-0.49709 -4.47379,-1.49126 -5.46796,-0.99417l-0.99418,-0.49709c-0.99417,-0.49709 -1.98835,-0.99418 -2.98252,-0.99418c0.99417,0.49709 1.98835,0.99418 2.98252,0.99418c0.49709,0 0.49709,0.49709 0.49709,0.49709c7.9534,2.98252 15.40971,4.97087 22.86602,5.96505c7.45631,0.99417 14.91262,1.98835 23.36311,2.48543c-9.94175,0.49709 -20.87767,0 -31.8136,-2.48543s-22.36893,-5.96505 -33.30485,-11.43301c-10.93592,-5.46797 -21.37476,-11.9301 -30.81942,-19.8835c-9.44466,-7.9534 -17.89514,-16.40388 -25.84854,-25.35146c8.94757,12.92428 20.38058,23.8602 32.31068,32.80777c11.93009,8.94757 25.35145,15.40971 38.27573,19.8835c8.45048,2.98252 17.89514,4.47378 25.35145,6.46213l4.47379,1.49126c4.97087,0.99418 10.93592,1.49127 15.90679,1.49127c5.46797,0 11.43301,0.49708 15.9068,-0.99418c1.49126,0 1.98835,0.49709 3.47961,0.49709c4.47379,-1.49126 9.44466,-1.98835 14.91262,-2.48544c5.46796,-0.49709 11.43301,-1.49126 16.90097,-2.98252c6.46214,-1.49126 11.9301,-4.47379 18.39224,-7.45631c5.96505,-2.98253 12.42718,-5.96505 19.88349,-8.94758c-1.98835,4.47379 -8.94757,8.45049 -14.41553,11.9301c-5.96505,3.47961 -12.92427,6.95922 -18.88932,9.94175c-2.48544,1.49126 -3.47961,2.48544 -6.95923,3.9767c-9.44466,3.47961 -21.37475,5.46796 -31.3165,7.9534c4.47379,0 6.95922,-0.49709 11.9301,-0.49709c-11.43301,2.48544 -23.8602,3.47961 -37.28156,2.48544c-12.92427,-0.49709 -26.84272,-2.98253 -39.76699,-7.45632c-12.92427,-3.97669 -25.35145,-9.44466 -37.28155,-15.90679c-11.9301,-6.46214 -22.86602,-14.41554 -32.80777,-23.8602c-1.98835,-1.98835 0,1.49127 -0.99417,0c-2.48544,-2.98252 -5.46796,-6.95922 -7.45631,-8.94757c4.97087,10.43884 14.91262,21.87185 26.84271,31.31651c11.9301,9.44466 25.35146,16.90097 37.28156,22.86602c-10.43884,-3.9767 -21.37476,-9.94175 -31.81359,-17.39806c-10.43884,-7.45631 -20.38059,-15.9068 -28.83107,-24.35728c5.46796,6.46213 11.43301,12.42718 17.39806,17.39805c6.46213,4.97088 12.92427,9.94175 20.38058,14.91263c-3.9767,-1.49127 -8.94757,-4.47379 -13.42136,-7.9534c-4.97087,-3.47961 -9.44466,-7.45631 -13.91845,-11.43301c1.98835,2.98252 7.9534,8.45048 12.92427,12.42718c11.9301,9.44466 25.84855,16.90097 40.76117,22.86602c14.91262,5.96505 29.82524,9.44466 43.74369,11.9301c-12.42718,-0.99418 -25.84854,-3.9767 -39.2699,-8.94757s-26.34563,-11.43301 -38.27573,-19.38641c7.9534,5.96505 16.90097,10.43883 25.84854,14.41553c8.94757,3.9767 18.88932,7.45631 28.83107,10.43884c-12.42718,-1.98835 -25.84854,-6.46214 -39.76699,-13.42136c10.93592,6.95922 23.36311,11.9301 35.79029,15.40971c12.42718,3.47961 25.35146,4.97087 38.77282,6.46213c-8.45049,0 -18.39224,-0.99417 -28.33398,-2.98252c-9.94175,-1.98835 -19.8835,-5.46796 -29.32816,-8.45049c13.91845,5.96505 28.33398,9.44466 42.74951,11.43301c14.91263,1.98835 29.82525,1.98835 44.73787,0.99418c-10.43884,1.98835 -22.86602,2.48543 -35.2932,0.99417c-12.42719,-0.99417 -25.35146,-3.47961 -37.77865,-6.95922c9.44466,3.9767 19.8835,4.97087 30.81942,6.95922c-2.98252,0.49709 -7.45631,-0.49708 -11.9301,-0.99417c-4.47378,-0.99418 -8.94757,-1.98835 -12.92427,-2.48544c11.9301,5.46796 25.84855,8.45049 40.26408,8.45049c14.41553,0.49708 28.83107,-0.99418 43.74369,-2.98253c-8.45049,1.98835 -17.89515,3.47961 -27.83689,3.9767c-9.94175,0.49709 -20.38059,0 -29.82525,-0.99417c6.95923,1.98835 14.91262,2.48543 22.86602,2.48543c7.9534,0 16.40389,-0.99417 24.85437,-1.49126c-4.97087,0.99418 -10.43883,1.98835 -16.40388,1.98835c-5.96505,0.49709 -12.42719,0.49709 -17.89515,0c13.42136,3.9767 29.32816,3.9767 44.73787,0.99418c15.40971,-2.98253 30.81941,-8.45049 45.73204,-13.91845c-8.45049,4.47378 -18.88932,8.45048 -29.82525,11.43301c-10.93592,2.98252 -22.36893,4.97087 -33.80194,5.96505c8.45049,-0.49709 16.90097,-1.49127 25.84855,-3.9767c8.94757,-1.98835 17.39805,-4.47379 25.35145,-6.95923c-7.45631,3.47962 -16.40388,5.96505 -25.84854,7.9534c-9.44466,1.98835 -18.88932,3.47961 -27.33981,4.47379c8.94758,2.48544 19.8835,1.98835 31.81359,-0.49709c11.9301,-2.48544 23.8602,-6.46213 35.29321,-11.43301c-3.9767,2.48544 -9.44466,4.47379 -14.91262,6.46214s-11.43301,3.47961 -16.90097,5.46796c12.42718,-0.99418 26.34563,-5.96505 39.2699,-12.92427c12.92427,-6.95923 24.35728,-15.40971 33.80194,-21.87185c-0.99417,2.48544 -6.46214,6.95923 -11.43301,10.43884c-4.97087,3.9767 -10.93592,7.45631 -15.9068,10.43883c15.9068,-7.45631 30.32233,-18.39223 45.23496,-30.81942c0.99417,0.99418 -1.98835,3.9767 -5.46796,6.95923c-5.46797,4.97087 -12.92428,10.93592 -20.38059,15.90679c-7.45631,4.97088 -15.40971,9.44466 -21.37475,13.42136c-13.91845,6.46214 -25.35146,10.93593 -38.27573,14.91262c14.91262,-0.99417 31.3165,-4.97087 47.2233,-10.93592c15.90679,-5.96505 31.3165,-13.91844 45.23495,-22.86602c-11.43301,8.94758 -25.84854,16.40389 -40.26408,21.87185c-14.41553,5.96505 -28.83107,9.94175 -43.2466,12.42718c8.94757,-0.99417 19.38641,-3.47961 29.32816,-6.95922c9.94174,-2.98253 19.88349,-6.95922 28.33398,-10.93592c-14.91263,7.95339 -30.32233,13.42136 -46.22913,16.90097c-15.9068,3.47961 -32.31068,5.46796 -49.21165,5.96505c11.43301,0.49708 23.86019,-0.49709 36.28738,-2.48544s24.35728,-4.97087 35.2932,-8.45049c-8.45048,3.47962 -16.90097,5.96505 -25.35145,7.9534c-8.45049,1.98835 -16.90098,2.98253 -25.84855,3.9767c25.35146,-1.49126 52.69126,-8.94757 78.04272,-21.87184c25.35146,-12.42719 48.71456,-30.32233 67.60388,-50.70292c-6.95922,8.94758 -15.90679,17.39806 -25.84854,25.35146c-9.94175,7.9534 -20.87767,14.91262 -31.3165,21.37476c5.96504,-2.98253 12.42718,-6.95923 18.39223,-11.43301c5.96505,-3.9767 11.9301,-8.94758 17.39806,-12.92427c-16.40389,15.4097 -35.29321,27.3398 -54.67962,36.28737c-19.88349,8.94758 -40.26407,14.41554 -61.63883,17.89515c25.84854,-2.48544 53.68544,-10.93592 79.53398,-24.85437c25.84854,-13.91845 49.21165,-33.30485 68.10097,-55.1767c-19.38641,24.85437 -44.24077,44.24078 -71.08349,58.65631c-26.84272,14.41554 -56.17088,22.86602 -86.49321,26.34563c25.35146,-1.98835 52.19418,-8.94757 77.04855,-20.87767c25.35145,-11.93009 48.71456,-28.83106 68.10097,-48.71456c12.92427,-12.92427 24.35728,-28.33398 34.29903,-42.25243c-9.94175,16.90097 -20.87767,30.32233 -33.80195,43.74369c-1.98835,2.48544 1.49127,-1.98835 0.99418,0c-17.89515,18.88932 -38.27573,33.80194 -59.65049,45.23495s-44.24077,19.38641 -69.09514,23.8602c13.91844,-1.49126 30.81941,-6.46214 46.72621,-12.92427c8.94757,-3.47962 18.39223,-7.9534 26.84272,-12.42719c8.45049,-4.47378 16.40388,-9.44466 22.36893,-12.92427c9.44466,-6.95922 17.89515,-13.42136 25.84855,-20.38058c-5.46797,6.95922 -12.42719,11.43301 -19.38641,16.90097c13.91844,-9.94175 27.3398,-22.36893 39.2699,-36.28738c11.9301,-13.91845 22.36893,-28.83107 30.81942,-44.24078c-10.93592,22.86602 -26.34563,41.75534 -42.74952,58.65631c-24.85437,24.85437 -55.1767,44.24078 -87.98446,56.66796s-68.10097,16.90098 -102.89709,14.41554c20.87767,1.98835 42.74952,0.99417 64.62136,-2.98253s43.2466,-11.43301 63.62718,-21.37475c20.38059,-9.94175 39.26991,-23.36311 55.67379,-38.27573c16.90097,-15.40971 31.31651,-32.80777 43.2466,-51.2c-14.91262,25.35146 -34.29903,46.72621 -56.66796,64.62136c-22.36893,17.39806 -47.72039,31.3165 -74.56311,40.26408c-0.99417,0.99417 6.95923,-2.98253 6.95923,-1.49127c-34.79612,12.92428 -72.07767,17.39806 -108.36505,13.91845c-36.28738,-3.47961 -71.0835,-15.9068 -101.40583,-34.79612c-6.46213,-3.97669 -11.93009,-8.45048 -17.89514,-12.42718c-5.46796,-4.47379 -11.43301,-8.45049 -17.39806,-12.42718c14.41553,13.42135 30.32233,24.85436 48.21748,34.79611c17.39805,9.44466 36.28738,16.90097 56.17087,21.87185c19.88349,4.97087 40.26408,6.95922 60.64466,6.95922s41.25825,-2.98252 61.14175,-8.45049c40.26408,-10.93592 78.04272,-32.31068 108.36505,-61.63883c30.32233,-29.32816 53.68543,-66.60971 67.10679,-107.37087c-2.48544,11.93009 -7.9534,23.3631 -12.92427,34.79611c2.48544,-3.9767 4.97087,-10.93592 7.45631,-15.40971c-8.45048,24.35729 -21.87184,46.22913 -37.28155,66.11262c-18.39224,23.36311 -40.76117,43.24661 -65.61554,59.1534c-24.85437,15.9068 -52.69126,27.33981 -81.52233,33.30486c-19.88349,3.9767 -39.2699,5.46796 -58.65631,4.97087c-18.88932,-0.49709 -37.77864,-3.47961 -56.17087,-8.45048c-36.28738,-9.94175 -70.08932,-28.33399 -98.92039,-54.18253c-9.44466,-8.45048 -16.90097,-17.39806 -24.35728,-25.84854c-6.95922,-8.45049 -13.91845,-16.40389 -20.87767,-23.8602c6.95922,10.43884 14.41553,21.37476 23.36311,31.8136c8.94757,10.43883 18.88932,20.38058 30.32233,29.82524c16.90097,13.91845 36.78446,25.84854 57.66213,34.29903c20.38058,8.45048 42.74952,14.41553 65.11845,17.39806c22.36893,2.98252 45.73204,2.98252 68.10097,-0.49709c34.29903,-4.97088 67.60388,-17.39806 97.42913,-35.79029c29.82524,-18.39224 55.67378,-42.74952 76.55145,-72.07767c6.95923,-9.44466 12.92427,-19.8835 18.39223,-29.82525c5.46797,-10.43883 10.43884,-20.87767 14.41554,-30.81941c-7.9534,22.36893 -18.88932,42.74951 -31.81359,61.63883c-12.92427,18.39223 -28.33398,35.29321 -45.23495,50.70291c17.39805,-13.91844 33.80194,-31.81359 47.72038,-52.69126c13.91845,-20.87767 25.35146,-44.73786 32.80777,-70.08932c4.97088,-16.40388 7.45631,-34.79612 10.43884,-50.20582c-1.98835,26.84271 -8.45049,51.2 -17.39806,75.06019c6.46213,-12.42718 11.93009,-28.83107 15.90679,-45.73204c3.9767,-16.90097 5.96505,-33.80194 7.45631,-47.72039c0.99418,9.44466 -0.49708,21.37476 -1.98834,31.31651c-5.46797,36.78446 -18.88932,72.57476 -38.77282,103.89126c-19.8835,31.31651 -45.73204,58.65631 -76.05437,79.03689c-23.36311,15.9068 -49.70874,28.33398 -77.54563,36.78447c-27.83689,8.45048 -57.16505,11.9301 -86.4932,10.93592c-29.32816,-0.99417 -58.65631,-6.95922 -86.49321,-17.89514c-27.83689,-10.93593 -53.18835,-26.34563 -75.06019,-46.22913c1.98835,0.49709 6.46213,4.47379 8.45048,5.96505c-12.42718,-10.93592 -24.35728,-23.36311 -35.2932,-37.77864c-10.93592,-14.41554 -21.37476,-29.82524 -29.32816,-46.72622c-8.45048,-16.90097 -14.91262,-34.29902 -18.88932,-52.19417c-4.47378,-17.89515 -6.46213,-35.79029 -6.95922,-52.69126c0,-6.95923 0,-16.90097 0.99418,-25.84855c0.49708,-8.94757 1.49126,-16.90097 1.98834,-20.87767c0,0 0,-0.99417 -0.49708,-0.99417c0.49708,-1.49126 0,0 0.49708,0c0.49709,-6.95922 0.99418,-11.9301 1.98835,-16.90097s1.98835,-9.94175 3.47961,-16.90097c0,4.47378 -1.49126,12.42718 -2.98252,16.90097c0.49709,0.99417 0,5.96505 -0.99417,10.93592c0.49708,-1.49126 0.99417,-4.47379 1.49126,-7.45631c0.49709,-2.98252 0.49709,-5.46796 0.49709,-5.96505c1.49126,-7.45631 3.47961,-13.42136 4.97087,-21.87184c3.47961,-9.44466 5.96505,-19.8835 9.44466,-27.33981c2.98252,-6.95922 6.95922,-12.92427 7.9534,-18.39223c1.98835,-1.98835 2.98252,-4.47379 5.96505,-8.94757c0.49708,-1.49127 -0.49709,0.49708 -0.99418,1.49126c2.98253,-4.97088 4.97088,-7.9534 6.95922,-11.43301c1.98835,-3.47961 4.47379,-6.95923 8.45049,-11.9301c0.49709,-1.98835 4.97087,-6.95922 11.43301,-14.41553c0.99417,-1.49127 2.48544,-3.47962 2.48544,-3.47962c7.95339,-8.94757 16.90097,-17.39805 26.34563,-25.84854c9.44466,-7.9534 19.88349,-15.40971 30.32233,-21.87184c10.43883,-6.46214 20.87767,-11.9301 30.81942,-15.9068c9.94174,-4.47379 19.3864,-7.45631 26.84271,-9.94175c1.98835,-0.49708 1.49127,-0.49708 0.49709,-0.49708c10.43884,-2.98253 18.88932,-4.97088 26.34563,-6.46214c7.9534,-1.49126 14.91262,-2.48544 22.36893,-2.98252c1.98836,-0.49709 7.45632,-0.99418 12.92428,-1.49127c5.46796,0 11.93009,0 15.90679,-0.49708c2.48544,0 0.99418,0 0.99418,0.49708c19.88349,0.49709 43.2466,2.98253 67.60388,10.43884s49.70874,18.88932 73.56893,36.28738c-5.96505,-3.9767 -9.94175,-6.46214 -14.91262,-9.44466c-4.47378,-2.48544 -9.44466,-5.46796 -15.9068,-8.94758c-1.49126,-0.49708 0,0 0.49709,0.49709c-4.47378,-1.49126 -11.93009,-5.96505 -17.89514,-8.45048c0,0.49708 2.98252,1.49126 2.98252,1.98835c-2.48544,-0.49709 -5.46796,-2.98253 -8.45048,-3.47962c18.39223,7.9534 34.79611,16.90097 50.20582,27.33981c15.40971,10.93592 30.32233,23.86019 44.24078,39.76699c-3.47961,-2.98252 -8.94758,-9.94175 -13.42136,-13.91845c-0.99418,-0.99417 0,0 0.49709,0.99418c-11.9301,-11.43301 -24.35729,-20.87767 -37.28156,-28.83107c-12.42718,-7.9534 -25.35145,-14.91262 -38.77281,-20.38058c-13.42136,-5.46796 -27.33981,-9.94175 -42.25243,-13.42136c-14.91262,-3.47961 -30.81942,-5.46796 -48.21748,-5.96505c44.73787,2.48544 87.48738,15.9068 124.27185,39.76699c36.78446,23.36311 67.60388,56.66796 88.48155,97.42913c3.9767,7.95339 0,0.99417 -1.98835,-2.98253s-3.9767,-7.45631 -6.46213,-11.43301c-0.99418,-0.99417 0,0 0.49708,0.99418c-4.97087,-7.9534 -9.44466,-14.41554 -13.91844,-20.38059c-4.47379,-5.96504 -8.94757,-11.43301 -15.40971,-18.39223c7.45631,9.44466 16.40388,21.87185 24.85437,34.79612c8.45048,13.42136 15.40971,27.83689 19.88349,40.26408c-5.96505,-13.91845 -12.92427,-26.84272 -20.87767,-39.26991s-17.39806,-24.85437 -28.33398,-36.78446c0.49709,1.49126 3.9767,4.97087 5.96505,6.95922c-1.49126,-1.49126 -4.97087,-5.46796 -8.94757,-9.44466l-11.43301,-11.43301c-0.99418,-0.99418 0,0 0.49709,0.99417c-26.34564,-23.86019 -58.65632,-42.74951 -93.45243,-53.18834c-17.39806,-5.46797 -35.29321,-8.45049 -53.18835,-9.94175c-17.89515,-1.49126 -35.79029,-0.49709 -53.68544,1.98835c11.9301,-1.49126 25.35146,-2.48544 40.26408,-1.98835c14.91262,0.49708 30.81942,1.98835 46.72621,5.96505c15.9068,3.47961 32.31068,8.94757 47.72039,16.40388c15.40971,6.95922 29.82524,15.9068 42.74952,25.84854c2.98252,2.48544 0.99417,0.99418 -2.98253,-1.98835c-3.47961,-2.48543 -8.45048,-5.96505 -10.43883,-6.95922c-5.46796,-3.47961 -13.42136,-7.45631 -16.90097,-9.44466c21.37475,11.9301 43.2466,27.83689 61.63883,47.72039c18.39223,19.38641 33.30485,42.25243 43.2466,64.62136c0.99418,2.48543 2.48544,5.46796 3.47961,7.9534c0.99418,1.49126 2.98253,7.45631 0.99418,3.47961c-1.98835,-4.97088 -3.9767,-9.94175 -6.46214,-14.41554c-0.49708,-0.99417 -0.49708,0 0,0.99418c-18.39223,-37.28155 -45.73204,-68.59806 -78.5398,-91.46408c-1.49126,-0.99417 0,0.49709 0.99417,1.49126c-1.98835,-0.49708 -7.45631,-5.46796 -9.44466,-5.96505c14.41554,9.94175 28.83107,21.87185 41.25825,35.29321c12.42719,12.92427 22.86602,27.3398 30.32233,39.2699c1.49127,2.48544 3.47962,5.46796 4.97088,8.45049l1.98835,3.9767c0.99417,1.98835 0.49708,1.49126 0,0c-2.98253,-5.46797 -5.96505,-10.43884 -8.94757,-15.9068c-0.99418,-0.99418 0,0.49709 0.49708,1.49126c-4.47378,-5.96505 -7.9534,-11.9301 -12.42718,-16.90097c9.44466,12.92427 17.39806,25.84854 24.35728,40.26408c6.95922,13.91845 12.92427,29.32815 16.40388,46.22912c0.99418,2.98253 0,1.49127 -0.49708,-0.99417c-0.49709,-1.49126 -0.49709,-2.98252 -0.99418,-3.9767c-0.99417,-2.98252 -1.49126,-5.46796 -2.48544,-8.45048c-0.49708,-1.49127 0,0.49708 0.49709,1.49126c-3.9767,-12.42719 -8.45048,-23.36311 -13.91845,-33.80194c-5.46796,-10.43884 -10.93592,-20.38059 -18.39223,-30.81942c-1.49126,-1.98835 -0.49709,0.49709 -2.98252,-2.48544c-9.94175,-12.92427 -21.87185,-25.84854 -34.79612,-37.28155c-12.92427,-11.43301 -26.84272,-20.87767 -41.25825,-28.83107c2.48544,1.98835 5.96505,3.9767 9.94175,6.46214c-14.41554,-8.94758 -28.83107,-15.9068 -43.74369,-20.87767c-14.41554,-5.46796 -29.32816,-8.94758 -44.24078,-11.43301c21.37476,3.47961 42.25243,9.94174 61.63884,19.3864c19.3864,9.44466 36.78446,20.87767 52.69126,34.79612c31.3165,27.33981 54.18252,62.63301 67.10679,99.91456c4.47379,12.92427 7.9534,25.84855 9.44466,40.26408c0,0.49709 0.99418,7.9534 0,0.99418c-0.99417,-8.45049 -2.48543,-14.91263 -4.47378,-21.37476c-1.49126,-6.46214 -3.47961,-12.42719 -6.46214,-20.87767c0,0.99417 0.49709,2.48543 0.99418,4.97087c-9.94175,-27.83689 -24.85437,-54.18252 -44.24078,-76.55145c-19.38641,-22.36894 -42.74952,-41.25826 -69.59223,-54.67962c18.39223,9.94175 34.79611,21.87185 48.71456,35.29321c14.41553,12.92427 26.34563,27.3398 35.2932,41.75534c-4.97087,-6.95923 -11.93009,-15.40971 -19.3864,-24.35728c0.99417,1.98835 2.98252,3.97669 4.97087,6.46213c-10.43884,-11.9301 -21.87185,-23.36311 -35.2932,-33.30485c-12.92428,-10.43884 -27.33981,-18.88932 -42.74952,-26.34563c16.90097,8.45048 31.81359,18.39223 45.73204,29.82524c13.42136,11.43301 25.84854,23.86019 36.28738,37.77864c10.43883,13.91845 19.38641,29.32815 26.84272,45.73204c6.95922,16.40388 12.42718,34.29903 14.91262,53.18835c-1.98835,-11.9301 -4.97088,-22.36893 -7.9534,-30.81942c-0.49709,0.49709 0.99417,3.47961 0.99417,4.97087c-5.96504,-18.88932 -14.91262,-38.77281 -26.34563,-56.66796c-11.93009,-18.39223 -26.34563,-34.79611 -42.25242,-47.72038c6.95922,6.46213 14.41553,13.91844 20.87767,21.37475c6.46213,7.45631 12.42718,15.40971 15.90679,21.37476c3.47961,4.97087 0.99418,2.48544 -0.99417,-0.99418c-12.92427,-18.39223 -28.33398,-33.80194 -46.22913,-47.72038c9.94175,7.95339 21.87185,18.88932 32.31068,31.3165c10.43884,12.42719 19.38641,25.84855 25.84854,38.27573c0,0 0.99418,2.48544 2.48544,4.97087c0.99418,2.48544 2.48544,4.97088 1.98835,4.47379c-3.47961,-6.95922 -4.97087,-9.44466 -6.46213,-11.43301c-0.99418,-1.98835 -1.98835,-3.9767 -4.97088,-8.45049c-7.45631,-11.43301 -15.40971,-21.87184 -24.35728,-31.81359c-8.94757,-9.44466 -18.39223,-18.39223 -29.32816,-26.84272c-3.47961,-2.48543 -7.45631,-5.96505 -11.43301,-8.45048c-3.97669,-2.48544 -7.95339,-4.97088 -10.93592,-5.96505c12.92427,8.45048 25.84855,17.89515 37.77864,29.32816c11.9301,11.43301 22.86602,23.86019 31.8136,37.77864c9.44466,13.91844 16.90097,28.83106 22.36893,44.73786c5.46796,15.40971 9.44466,31.31651 10.93592,47.2233c-1.98835,-15.90679 -5.96505,-31.81359 -11.9301,-47.2233c-5.96505,-15.40971 -13.42136,-30.32233 -22.86602,-44.24078c-18.88932,-27.83689 -44.73786,-51.69708 -74.5631,-67.60388c7.45631,4.47379 13.42136,7.9534 19.38641,12.42718c5.96504,4.47379 12.42718,9.44466 19.3864,15.9068c1.49127,1.49126 -2.48543,-1.98835 -5.96505,-4.47379s-5.46796,-3.97669 -0.49708,0c5.96505,4.97088 12.42718,10.93593 19.38641,18.39224s13.91844,15.90679 19.88349,25.35145c5.96505,8.94758 11.9301,18.88932 15.9068,28.83107c4.47378,9.44466 7.45631,18.88932 9.94174,27.33981c-5.96505,-18.88932 -15.90679,-39.2699 -29.82524,-58.15923c-13.42136,-18.88932 -30.81942,-35.79029 -49.21165,-48.71456c20.87767,15.40971 39.76699,35.29321 54.18252,58.65631c14.41554,23.36311 23.8602,49.70874 27.8369,76.05437c0.49709,1.49126 0,1.49126 0,0.99418c-2.98253,-18.39224 -8.94757,-37.28156 -17.89515,-55.67379c-8.94757,-18.39223 -20.87767,-35.2932 -34.29903,-50.20583c0,0.99418 2.48544,3.47962 3.9767,5.46797c-11.93009,-12.92428 -25.84854,-25.35146 -41.25825,-35.7903c-15.40971,-10.43883 -32.31068,-18.39223 -48.71456,-23.86019c13.42135,5.46796 27.3398,11.9301 40.76116,20.38058c13.42136,8.45049 26.34563,18.88932 38.27573,30.81942c11.43301,11.9301 21.87184,24.85437 29.82524,38.77281c7.9534,13.91845 13.91845,27.8369 17.89515,41.75534c-2.98253,-7.95339 -5.46796,-15.90679 -9.44466,-22.36893c-4.97088,-10.43883 -10.43884,-20.87767 -16.90097,-30.32233c-6.46214,-9.44466 -13.91845,-17.89514 -21.37476,-24.85437c17.39806,20.87767 31.3165,45.73204 40.26408,74.06602c-1.98835,-3.47961 -3.9767,-8.94757 -6.46214,-14.41553c-2.48544,-5.46796 -5.46796,-11.43301 -7.9534,-15.9068c-0.49708,0.49709 1.49126,2.48544 1.98835,3.9767c-7.9534,-13.42136 -17.39806,-26.84272 -28.83107,-38.77281c1.49127,3.47961 5.46797,7.95339 9.44466,12.92427c3.9767,4.97087 7.9534,10.43883 9.44466,14.91262c0,1.49126 -1.49126,-0.49709 -1.98834,0.49709c2.98252,4.97087 3.97669,6.95922 6.95922,12.92427c-3.9767,-6.46214 -7.9534,-13.42136 -12.92427,-20.38058c4.47378,7.95339 9.94174,16.90097 14.41553,26.84271c-0.49709,0 -0.99417,-1.49126 -1.49126,-2.48543c1.98835,5.46796 4.97087,12.42718 7.9534,20.38058c2.48543,7.45631 4.97087,15.40971 5.46796,21.87184c0.49708,1.98835 0.49708,-1.98835 0.99417,0.99418c0.49709,2.98252 0.99418,7.45631 1.49127,11.9301c0.49708,4.47378 0.99417,8.45048 0.99417,10.43883c0.49709,3.9767 -0.99417,10.43884 -0.99417,16.40389c5.96504,-2.48544 7.45631,2.48543 5.46796,-1.98835zm-244.06991,243.07572c2.98253,0.99418 7.45631,1.98835 9.44466,2.98253c4.47379,0.99417 12.42719,3.47961 12.42719,2.48544c-2.98253,-0.49709 -7.9534,-1.98835 -12.42719,-2.98253c-3.47961,-0.99417 -11.43301,-3.47961 -9.44466,-2.48544zm12.42719,-31.3165c-3.9767,-1.49126 -9.94175,-3.47961 -13.42136,-3.9767c3.47961,1.98835 8.94757,3.9767 13.42136,3.9767zm35.2932,0.49709c-6.46213,-0.49709 -12.92427,-1.98835 -19.88349,-3.47961c-6.46214,-1.98835 -13.42136,-3.47962 -19.38641,-4.47379c6.46214,1.98835 12.92427,3.9767 19.38641,5.46796c6.95922,1.49126 13.42136,2.48544 19.88349,2.48544zm19.8835,1.49126c-1.49126,-0.49709 -10.93592,-0.49709 -8.45049,0.49709c0.49709,-0.49709 6.95922,0.49708 8.45049,-0.49709zm6.95922,-1.49126c2.48544,0.99417 7.45631,0.49708 11.9301,0c4.47378,-0.49709 9.44466,-1.98835 12.42718,-2.98253c-7.45631,0 -16.90097,1.98835 -24.35728,2.98253zm-40.26408,-4.97088c6.46214,1.49127 13.42136,2.98253 21.37476,3.9767c7.45631,0.99418 15.40971,0.49709 22.86602,-0.99417c-14.91262,0.49708 -29.82524,-1.49126 -44.24078,-2.98253zm-15.90679,-8.45048c4.97087,1.49126 11.93009,3.47961 18.88932,4.47378c6.95922,0.99418 14.41553,1.49127 20.38058,0.99418c-6.46214,0 -13.91845,-1.49126 -20.87767,-2.98252c-6.46214,-1.49127 -12.92427,-2.48544 -18.39223,-2.48544zm-19.8835,-6.95923c2.98253,1.49127 6.95922,2.48544 10.43884,3.47962c3.47961,0.99417 7.45631,1.49126 9.44466,1.49126c-6.95923,-1.98835 -14.91262,-4.47379 -19.8835,-4.97088zm-8.45048,3.47962c0.49708,0.49708 -4.97088,-2.48544 -6.95923,-2.98253c2.48544,1.49126 9.94175,4.47379 6.95923,2.98253zm-15.9068,-15.9068c4.47379,2.48544 12.42718,6.46214 15.9068,6.46214c-4.97088,-1.98835 -11.9301,-6.46214 -15.9068,-6.46214zm-4.97087,4.97087c-0.49709,0.49709 6.46213,3.9767 4.97087,2.98253c-2.48544,-0.99418 -1.98835,-1.49126 -4.97087,-2.98253zm-4.47379,7.45631c7.9534,4.47379 17.39806,9.94175 26.34563,11.9301c-3.9767,-1.49126 -8.45048,-3.9767 -13.42136,-6.46213c-4.47379,-1.98835 -9.44466,-4.47379 -12.92427,-5.46797zm-47.2233,-25.84854c-4.97088,-4.47378 -10.43884,-11.9301 -15.40971,-15.40971c4.47379,4.97088 10.43883,12.42719 15.40971,15.40971zm16.40388,1.98835c-4.47378,-3.9767 -9.94175,-8.45048 -13.91845,-10.93592c3.47962,3.9767 10.43884,9.44466 13.91845,10.93592zm17.39806,15.40971c3.9767,2.48544 8.94757,5.46796 10.93592,5.46796c-3.9767,-1.98835 -8.45048,-4.97087 -10.93592,-5.46796zm-23.86019,-6.95922c2.48543,1.98835 8.94757,7.45631 9.94174,6.95922l-3.9767,-3.47961c-1.98835,-1.49126 -4.47378,-3.47961 -5.96504,-3.47961zm6.95922,-27.33981c4.47378,3.9767 9.44466,7.45631 13.42136,9.44466c-4.47379,-3.47961 -10.43884,-7.9534 -13.42136,-9.44466zm-12.42719,-2.48544c1.98835,2.48544 7.9534,8.45049 9.94175,8.94758c-2.98252,-2.98253 -7.45631,-7.45631 -9.94175,-8.94758zm-16.90097,-6.46213c1.98835,2.98252 4.97088,6.46213 7.9534,9.44466c2.98253,2.98252 6.46214,5.46796 8.94757,6.95922c-5.46796,-5.96505 -11.93009,-11.9301 -16.90097,-16.40388zm13.91845,-8.45049c2.48544,2.98253 5.96505,5.96505 7.9534,6.95923c-2.98253,-2.48544 -5.96505,-5.46797 -7.9534,-6.95923zm-7.9534,1.98835c1.98835,2.48544 3.9767,4.47379 5.96505,5.46796c-2.48544,-1.98835 -4.97087,-4.97087 -5.96505,-5.46796zm107.86796,17.89515c1.49127,0 3.9767,1.49126 4.47379,0.99417c-1.98835,0 -3.47961,-1.49126 -4.47379,-0.99417zm-23.86019,-10.43884c-0.99418,-0.49708 -1.49126,-0.99417 -2.98253,-1.49126c-0.99417,0 2.98253,1.98835 2.98253,1.49126zm-79.03689,67.1068c-7.9534,-6.46214 -17.39806,-14.41554 -25.84855,-22.86602c-8.45048,-8.45049 -15.90679,-17.39806 -20.38058,-24.85437c-11.43301,-14.41553 -20.87767,-31.3165 -28.83107,-49.21165c-4.97087,-10.93592 -8.94757,-23.36311 -11.9301,-34.79612c-3.47961,-11.43301 -5.46796,-22.36893 -8.45048,-30.32233c4.47379,31.31651 14.91262,62.13592 31.3165,89.97282c15.9068,27.3398 37.77865,52.19417 64.12428,72.07767c0.99417,0.99417 1.98835,1.49126 0,0zm-70.08932,-154.59418c-1.49127,-6.46213 -2.48544,-9.44466 -3.47962,-14.91262c-0.49708,1.49126 0.49709,4.47379 0.99418,7.45631s1.98835,5.96505 2.48544,7.45631zm5.46796,22.86602c-2.48544,-6.95922 -4.47379,-12.92427 -6.46214,-17.89514c1.49126,5.46796 3.9767,14.91262 6.46214,17.89514zm-18.39224,5.46796c6.46214,22.36894 17.39806,45.23496 31.31651,66.11263c13.91845,20.87767 31.81359,39.2699 49.70874,53.68543l3.47961,2.48544l2.98252,1.98835c-1.98835,-1.49126 -3.9767,-2.98253 -6.46213,-4.97087c-17.89515,-14.91263 -33.80195,-32.31068 -47.2233,-52.19418c-14.41554,-19.88349 -25.35146,-43.74369 -33.80195,-67.1068zm36.78447,12.92428c-1.49126,-3.9767 -3.47961,-9.94175 -5.96505,-13.42136c0.99418,2.98252 3.47961,9.94174 5.96505,13.42136zm-14.41553,-0.99418c1.49126,3.9767 3.47961,7.9534 4.97087,9.44466c-1.98835,-3.9767 -3.9767,-8.45048 -4.97087,-9.44466zm56.17087,25.35146c-2.48544,-3.9767 -6.95922,-9.44466 -9.44466,-12.42719c2.98252,4.97088 5.96505,9.44466 9.44466,12.42719zm-23.86019,21.87184c2.98252,3.9767 4.47378,5.46796 4.47378,5.46796c-0.49709,-0.49708 -1.49126,-2.48543 -4.47378,-5.46796zm16.90097,-4.97087c-3.47962,-4.97088 -9.44466,-11.43301 -12.42719,-14.91262c2.98253,5.46796 7.9534,11.43301 12.42719,14.91262zm1.98835,-32.80777c2.48543,3.9767 6.46213,8.45049 8.94757,11.9301c-0.49709,0 -0.99418,-0.49709 -1.49126,-0.49709c2.98252,3.9767 5.96505,6.95922 8.45048,9.44466c-2.48544,-2.98252 -5.46796,-7.45631 -7.9534,-11.43301c-2.98252,-3.9767 -5.46796,-7.9534 -7.95339,-9.44466zm-35.7903,8.94757c0.49709,1.98835 4.97088,9.94175 5.46797,8.94758c-2.98253,-3.47961 -3.9767,-6.95923 -5.46797,-8.94758zm5.96505,-21.37475c2.48544,5.96505 6.95923,14.41553 10.43884,17.39806c-3.47961,-5.96505 -7.45631,-12.92428 -10.43884,-17.39806zm44.73787,-40.76117l-7.45631,-19.38641c3.9767,14.91263 9.44466,27.8369 16.90097,36.78447c-2.48544,-3.9767 -4.47379,-6.95922 -6.95923,-12.42718c0,0.49708 0.49709,1.49126 0.49709,1.49126c0,-1.49126 -2.48544,-5.46796 -2.48544,-5.46796c-0.49708,0 0,-0.99418 -0.49708,-0.99418c0.49708,0 0,0 0,0zm-3.47961,-29.82524c1.49126,7.9534 3.47961,14.41553 6.46213,20.38058c-0.49709,-3.9767 -3.47961,-8.94757 -3.9767,-14.41553l0,1.49126c0,-1.49126 -0.99417,-3.47961 -0.49709,-5.46796c-1.49126,0.49709 -0.99417,-2.48544 -1.98834,-1.98835zm-72.07767,-50.70291c-0.99418,0 -1.49127,6.95922 -0.99418,7.95339c0.49709,-2.98252 0.49709,-5.46796 0.99418,-7.95339zm170.99805,-112.83884c-4.47378,0.99418 -8.94757,2.48544 -11.93009,4.47379c1.49126,-0.49709 6.46213,-2.48544 9.94174,-3.47961c3.9767,-0.99418 6.46214,-1.98835 1.98835,-0.99418zm83.0136,5.46796c0.99417,-0.49708 3.47961,0.99418 3.9767,0.99418c0.99417,-0.99418 -5.96505,-1.98835 -3.9767,-0.99418zm135.70485,105.38253c0.99418,2.48543 0.99418,6.95922 1.49126,6.46213c-0.49708,-1.49126 -0.49708,-5.96505 -1.49126,-6.46213z" fill="#333333" p-id="4797" id="svg_1"/>
  <path d="m438.92813,248.54368c0,-3.47961 0.49709,-7.95339 -0.49708,-9.44466c0,3.9767 0,6.95923 0.49708,9.44466z" fill="#1296db" p-id="4798" id="svg_2"/>
 </g>

</svg>